<?xml version="1.0" standalone="no"?>
<!DOCTYPE svg PUBLIC "-//W3C//DTD SVG 20010904//EN"
        "http://www.w3.org/TR/2001/REC-SVG-20010904/DTD/svg10.dtd">
<svg version="1.0" xmlns="http://www.w3.org/2000/svg"
     width="1080.000000pt" height="1080.000000pt" viewBox="0 0 1080.000000 1080.000000"
     preserveAspectRatio="xMidYMid meet">

    <g transform="translate(0.000000,1080.000000) scale(0.100000,-0.100000)"
       fill="#000000" stroke="line">
        <path d="M0 5400 l0 -5400 5400 0 5400 0 0 5400 0 5400 -5400 0 -5400 0 0
-5400z m4942 1447 c140 -37 228 -85 318 -176 132 -133 196 -299 207 -537 8
-177 33 -164 -322 -164 -291 0 -329 4 -340 39 -3 9 -9 49 -14 89 -16 123 -69
182 -166 182 -117 0 -185 -74 -185 -201 0 -135 50 -217 273 -447 183 -189 263
-292 323 -417 74 -151 88 -221 88 -425 -1 -148 -4 -187 -22 -254 -102 -372
-394 -593 -809 -613 -368 -18 -643 109 -771 355 -60 115 -83 210 -89 375 -5
123 -4 139 12 157 17 19 32 20 323 20 363 0 342 7 342 -109 1 -137 49 -201
150 -201 106 0 161 61 168 189 8 144 -39 227 -264 463 -263 275 -364 437 -409
653 -20 98 -21 280 -1 373 74 357 358 611 751 672 109 17 328 5 437 -23z
m-1994 4 c268 -56 456 -236 536 -515 48 -163 73 -435 44 -464 -14 -14 -663
-18 -672 -3 -3 4 -10 50 -16 101 -11 97 -36 169 -72 207 -33 35 -100 57 -150
49 -142 -23 -245 -130 -363 -378 -143 -302 -214 -657 -186 -937 17 -166 56
-258 132 -308 38 -25 52 -28 124 -28 71 0 89 4 146 32 73 36 148 109 194 187
35 59 77 174 70 187 -4 5 -51 9 -105 9 -76 0 -102 4 -114 16 -9 8 -16 19 -16
24 0 5 25 116 55 246 30 131 55 239 55 240 0 1 7 10 16 18 14 14 77 16 544 16
l530 0 14 -22 c13 -21 9 -46 -41 -263 -30 -132 -61 -247 -69 -255 -10 -10 -43
-17 -101 -20 l-86 -5 -47 -135 c-199 -576 -473 -845 -925 -910 -38 -5 -129
-10 -202 -10 -203 0 -325 32 -457 121 -350 234 -475 739 -345 1399 155 795
557 1305 1106 1404 116 21 290 19 401 -3z m4220 -37 l22 -15 0 -1400 c0 -1386
0 -1399 -20 -1419 -19 -19 -33 -20 -333 -20 -270 0 -316 2 -335 16 -23 16 -23
17 -16 180 l7 164 -329 -2 -329 -3 -70 -169 c-49 -119 -76 -171 -90 -177 -11
-4 -163 -8 -337 -8 -283 -1 -318 1 -333 16 -12 11 -15 26 -12 47 8 46 1245
2779 1264 2794 13 9 120 12 453 12 378 0 438 -2 458 -16z m1522 -8 c394 -69
619 -270 691 -620 26 -128 26 -364 -1 -521 -97 -567 -478 -969 -1035 -1091
-61 -13 -147 -19 -355 -23 -233 -5 -275 -8 -277 -21 -2 -10 43 -39 142 -90
101 -52 147 -81 151 -95 3 -12 -11 -95 -31 -185 -27 -124 -42 -169 -57 -182
-18 -16 -49 -18 -318 -18 -274 0 -300 1 -320 18 l-23 19 307 1344 c371 1622
333 1464 359 1478 36 18 648 7 767 -13z m256 -2525 c104 -47 122 -195 33 -275
-67 -61 -161 -56 -232 12 -75 72 -51 213 46 261 52 26 99 26 153 2z"/>
        <path d="M6522 6008 c-92 -225 -422 -1050 -422 -1057 0 -9 362 -21 392 -13 10
2 20 17 22 36 3 17 15 249 26 516 11 267 22 509 23 538 2 28 0 52 -4 52 -4 0
-21 -33 -37 -72z"/>
        <path d="M8092 6194 c2 -9 68 -51 148 -94 80 -43 146 -84 148 -92 1 -7 -38
-193 -88 -413 -49 -219 -90 -403 -90 -408 0 -6 26 -7 60 -4 213 19 384 234
435 549 38 235 -1 405 -105 458 -36 18 -58 20 -275 20 -211 0 -236 -2 -233
-16z"/>
        <path d="M8815 4256 c-84 -38 -97 -168 -24 -231 24 -19 42 -25 81 -25 43 0 54
4 83 33 20 20 36 48 40 70 9 48 -13 115 -46 139 -34 25 -96 32 -134 14z m105
-39 c30 -15 38 -52 17 -75 -13 -15 -14 -20 -1 -36 8 -11 14 -31 14 -44 0 -20
-4 -23 -27 -20 -22 2 -29 9 -33 33 -3 18 -12 31 -23 33 -14 3 -17 -4 -17 -32
0 -32 -3 -36 -25 -36 -25 0 -25 0 -25 95 l0 95 48 0 c26 0 58 -6 72 -13z"/>
        <path d="M8850 4170 c0 -16 5 -21 23 -18 12 2 22 10 22 18 0 8 -10 16 -22 18
-18 3 -23 -2 -23 -18z"/>
    </g>
</svg>
